<?xml version="1.0" encoding="utf-8"?>
<svg version="1.1" xmlns:xlink="http://www.w3.org/1999/xlink" width="64px" height="64px" xmlns="http://www.w3.org/2000/svg">
  <g transform="matrix(1 0 0 1 -53 -36 )">
    <path d="M 85 36.5  C 102.64 36.5  116.5 50.36  116.5 68  C 116.5 85.64  102.64 99.5  85 99.5  C 67.36 99.5  53.5 85.64  53.5 68  C 53.5 50.36  67.36 36.5  85 36.5  Z " fill-rule="nonzero" fill="#194c83" stroke="none" />
    <path d="M 85 36.5  C 102.64 36.5  116.5 50.36  116.5 68  C 116.5 85.64  102.64 99.5  85 99.5  C 67.36 99.5  53.5 85.64  53.5 68  C 53.5 50.36  67.36 36.5  85 36.5  Z " stroke-width="1" stroke="#ffffff" fill="none" stroke-opacity="0.996078431372549" />
  </g>
</svg>